<svg width="66" height="26" viewBox="0 0 66 26" fill="none" xmlns="http://www.w3.org/2000/svg">
<path d="M31.2857 24L30.8186 24.8842L31.5914 25.2925L32.0994 24.5812L31.2857 24ZM42.7143 8V7L42.1997 7L41.9006 7.41876L42.7143 8ZM65.7071 8.70711C66.0976 8.31658 66.0976 7.68342 65.7071 7.29289L59.3431 0.928932C58.9526 0.538408 58.3195 0.538408 57.9289 0.928932C57.5384 1.31946 57.5384 1.95262 57.9289 2.34315L63.5858 8L57.9289 13.6569C57.5384 14.0474 57.5384 14.6805 57.9289 15.0711C58.3195 15.4616 58.9526 15.4616 59.3431 15.0711L65.7071 8.70711ZM0.532879 8.88419L30.8186 24.8842L31.7528 23.1158L1.46712 7.11581L0.532879 8.88419ZM32.0994 24.5812L43.528 8.58124L41.9006 7.41876L30.472 23.4188L32.0994 24.5812ZM42.7143 9L65 9V7L42.7143 7V9Z" fill="#FAFAFA"/>
</svg>
