<svg width="60" height="60" viewBox="0 0 60 60" fill="none" xmlns="http://www.w3.org/2000/svg">
<path fill-rule="evenodd" clip-rule="evenodd" d="M35.625 6.25C35.625 6.08424 35.5592 5.92527 35.4419 5.80806C35.3247 5.69085 35.1658 5.625 35 5.625H17.5C15.6766 5.625 13.928 6.34933 12.6386 7.63864C11.3493 8.92795 10.625 10.6766 10.625 12.5V47.5C10.625 49.3234 11.3493 51.072 12.6386 52.3614C13.928 53.6507 15.6766 54.375 17.5 54.375H42.5C44.3234 54.375 46.072 53.6507 47.3614 52.3614C48.6507 51.072 49.375 49.3234 49.375 47.5V22.8675C49.375 22.7017 49.3092 22.5428 49.1919 22.4256C49.0747 22.3083 48.9158 22.2425 48.75 22.2425H37.5C37.0027 22.2425 36.5258 22.045 36.1742 21.6933C35.8225 21.3417 35.625 20.8648 35.625 20.3675V6.25ZM37.5 30.625C37.9973 30.625 38.4742 30.8225 38.8258 31.1742C39.1775 31.5258 39.375 32.0027 39.375 32.5C39.375 32.9973 39.1775 33.4742 38.8258 33.8258C38.4742 34.1775 37.9973 34.375 37.5 34.375H22.5C22.0027 34.375 21.5258 34.1775 21.1742 33.8258C20.8225 33.4742 20.625 32.9973 20.625 32.5C20.625 32.0027 20.8225 31.5258 21.1742 31.1742C21.5258 30.8225 22.0027 30.625 22.5 30.625H37.5ZM37.5 40.625C37.9973 40.625 38.4742 40.8225 38.8258 41.1742C39.1775 41.5258 39.375 42.0027 39.375 42.5C39.375 42.9973 39.1775 43.4742 38.8258 43.8258C38.4742 44.1775 37.9973 44.375 37.5 44.375H22.5C22.0027 44.375 21.5258 44.1775 21.1742 43.8258C20.8225 43.4742 20.625 42.9973 20.625 42.5C20.625 42.0027 20.8225 41.5258 21.1742 41.1742C21.5258 40.8225 22.0027 40.625 22.5 40.625H37.5Z" fill="#C4C4C4"/>
<path d="M39.375 7.06014C39.375 6.60014 39.8575 6.30764 40.215 6.59514C40.5175 6.84014 40.79 7.12514 41.0225 7.45014L48.555 17.9426C48.725 18.1826 48.54 18.4926 48.245 18.4926H40C39.8342 18.4926 39.6753 18.4268 39.5581 18.3096C39.4408 18.1924 39.375 18.0334 39.375 17.8676V7.06014Z" fill="#C4C4C4"/>
</svg>
