<svg width="160" height="160" viewBox="0 0 160 160" fill="none" xmlns="http://www.w3.org/2000/svg">
<path fill-rule="evenodd" clip-rule="evenodd" d="M95.0002 16.6667C95.0002 16.2246 94.8246 15.8007 94.512 15.4882C94.1994 15.1756 93.7755 15 93.3335 15H46.6668C41.8045 15 37.1414 16.9315 33.7032 20.3697C30.265 23.8079 28.3335 28.471 28.3335 33.3333V126.667C28.3335 131.529 30.265 136.192 33.7032 139.63C37.1414 143.068 41.8045 145 46.6668 145H113.334C118.196 145 122.859 143.068 126.297 139.63C129.735 136.192 131.667 131.529 131.667 126.667V60.98C131.667 60.538 131.491 60.114 131.179 59.8015C130.866 59.4889 130.442 59.3133 130 59.3133H100C98.6741 59.3133 97.4023 58.7865 96.4646 57.8489C95.527 56.9112 95.0002 55.6394 95.0002 54.3133V16.6667ZM100 81.6667C101.326 81.6667 102.598 82.1935 103.536 83.1311C104.473 84.0688 105 85.3406 105 86.6667C105 87.9927 104.473 89.2645 103.536 90.2022C102.598 91.1399 101.326 91.6667 100 91.6667H60.0002C58.6741 91.6667 57.4023 91.1399 56.4646 90.2022C55.527 89.2645 55.0002 87.9927 55.0002 86.6667C55.0002 85.3406 55.527 84.0688 56.4646 83.1311C57.4023 82.1935 58.6741 81.6667 60.0002 81.6667H100ZM100 108.333C101.326 108.333 102.598 108.86 103.536 109.798C104.473 110.735 105 112.007 105 113.333C105 114.659 104.473 115.931 103.536 116.869C102.598 117.807 101.326 118.333 100 118.333H60.0002C58.6741 118.333 57.4023 117.807 56.4646 116.869C55.527 115.931 55.0002 114.659 55.0002 113.333C55.0002 112.007 55.527 110.735 56.4646 109.798C57.4023 108.86 58.6741 108.333 60.0002 108.333H100Z" fill="#C3C3C3"/>
<path d="M105 18.8267C105 17.6 106.287 16.82 107.24 17.5867C108.047 18.24 108.773 19 109.393 19.8667L129.48 47.8467C129.933 48.4867 129.44 49.3134 128.653 49.3134H106.667C106.225 49.3134 105.801 49.1378 105.488 48.8252C105.176 48.5127 105 48.0887 105 47.6467V18.8267Z" fill="#C3C3C3"/>
</svg>
