<svg width="66" height="46" viewBox="0 0 66 46" fill="none" xmlns="http://www.w3.org/2000/svg">
<g clip-path="url(#clip0_25_273)">
<path d="M42.0999 43.6194C54.7633 44.616 60.7375 36.0634 55.4436 24.5165C50.1497 12.9697 35.5925 2.80119 22.9291 1.80456C10.2657 0.807929 4.29153 9.36057 9.58541 20.9074C14.8793 32.4543 29.4365 42.6228 42.0999 43.6194Z" fill="#26A17B"/>
<path fill-rule="evenodd" clip-rule="evenodd" d="M36.0972 24.7359L36.096 24.7333C35.9432 24.7314 35.151 24.7118 33.3381 24.5692C31.8907 24.4553 30.8539 24.3359 30.4884 24.292L30.4902 24.2959C24.816 23.634 20.2516 22.422 19.7664 21.3636C19.2817 20.3064 23.0349 19.7491 28.5024 19.9602L30.0864 23.4152C30.4612 23.4673 31.5302 23.6056 32.9719 23.7191C34.7016 23.8552 35.5387 23.8581 35.6946 23.8578L34.1112 20.4042C39.7752 21.0678 44.3295 22.279 44.8136 23.3348C45.2988 24.3933 41.5545 24.9488 36.0972 24.7359ZM33.9465 20.0448L32.529 16.9531L40.2877 17.5638L38.1262 12.8491L17.0013 11.1866L19.1628 15.9012L26.9214 16.5118L28.3383 19.6022C22.1538 19.3699 17.9342 20.1361 18.5596 21.5004C19.1851 22.8646 24.4489 24.3759 30.876 25.1374L35.4183 35.0449L41.0259 35.4863L36.4824 25.5761C42.6569 25.8077 46.8656 25.0418 46.2408 23.6789C45.6159 22.316 40.3636 20.8056 33.9465 20.0448Z" fill="white"/>
</g>
<defs>
<clipPath id="clip0_25_273">
<rect width="46" height="46" fill="white" transform="matrix(0.996917 0.0784591 0.416757 0.909018 0 0)"/>
</clipPath>
</defs>
</svg>
