<svg width="359" height="227" viewBox="0 0 359 227" fill="none" xmlns="http://www.w3.org/2000/svg">
<rect width="359" height="227" rx="8" fill="url(#paint0_linear_454_308)"/>
<path d="M324.5 113.5C324.5 133.228 308.439 151.224 282.161 164.318C255.914 177.396 219.618 185.5 179.5 185.5C139.382 185.5 103.086 177.396 76.839 164.318C50.5611 151.224 34.5 133.228 34.5 113.5C34.5 93.772 50.5611 75.776 76.839 62.6823C103.086 49.6037 139.382 41.5 179.5 41.5C219.618 41.5 255.914 49.6037 282.161 62.6823C308.439 75.776 324.5 93.772 324.5 113.5Z" stroke="#FAFAFA" stroke-opacity="0.6"/>
<path d="M274.5 113.586C274.5 126.434 264.035 138.202 246.806 146.787C229.607 155.357 205.811 160.672 179.5 160.672C153.189 160.672 129.393 155.357 112.194 146.787C94.9647 138.202 84.5 126.434 84.5 113.586C84.5 100.738 94.9647 88.9703 112.194 80.3851C129.393 71.8151 153.189 66.5 179.5 66.5C205.811 66.5 229.607 71.8151 246.806 80.3851C264.035 88.9703 274.5 100.738 274.5 113.586Z" stroke="#FAFAFA" stroke-opacity="0.6"/>
<path d="M224.5 113.672C224.5 119.64 219.632 125.179 211.45 129.256C203.299 133.317 192.004 135.844 179.5 135.844C166.996 135.844 155.701 133.317 147.55 129.256C139.368 125.179 134.5 119.64 134.5 113.672C134.5 107.703 139.368 102.165 147.55 98.0879C155.701 94.0265 166.996 91.5 179.5 91.5C192.004 91.5 203.299 94.0265 211.45 98.0879C219.632 102.165 224.5 107.703 224.5 113.672Z" stroke="#FAFAFA" stroke-opacity="0.6"/>
<defs>
<linearGradient id="paint0_linear_454_308" x1="163" y1="53.5" x2="431.5" y2="255.5" gradientUnits="userSpaceOnUse">
<stop stop-color="#16161F"/>
<stop offset="1" stop-color="#4B4B91" stop-opacity="0.92"/>
</linearGradient>
</defs>
</svg>
