<svg width="72" height="64" viewBox="0 0 72 64" fill="none" xmlns="http://www.w3.org/2000/svg">
<g clip-path="url(#clip0_25_270)">
<path d="M63.2175 36.6543C56.1836 52.7592 38.0955 63.6363 22.8453 60.9597C7.57166 58.2853 0.904699 43.0547 7.93437 26.9725C14.9682 10.8676 33.0327 -0.00757279 48.3063 2.6671C63.561 5.32036 70.2516 20.5491 63.2175 36.6543Z" fill="url(#paint0_linear_25_270)"/>
<path d="M50.5213 27.0218C51.8582 23.0632 49.2515 21.183 45.3625 20.1064L47.7406 14.6832L44.6244 14.1351L42.3197 19.4165C41.495 19.2774 40.647 19.1402 39.7945 19.0259L42.1037 13.7215L38.9875 13.1734L36.6373 18.5717C35.944 18.4676 35.274 18.3617 34.6274 18.2539L34.6318 18.2309L30.3115 17.4829L28.7828 21.0032C28.7828 21.0032 31.1065 21.3644 31.0554 21.3911C32.3252 21.6085 32.3906 22.4647 32.211 23.1588L29.5044 29.3332C29.5934 29.3489 29.7058 29.3627 29.8327 29.4207C29.7203 29.4069 29.6079 29.3931 29.5 29.3562L25.7209 37.9951C25.4821 38.3992 24.9464 39.0307 24.0794 38.8723C24.0939 38.9165 21.8068 38.4845 21.8068 38.4845L19.4584 42.3187L23.5305 43.0409C24.2851 43.1855 25.0207 43.3089 25.7519 43.4554L23.365 48.9246L26.4812 49.4727L28.8592 44.0495C29.7028 44.2098 30.5464 44.3701 31.3477 44.511L28.9975 49.9094L32.1136 50.4575L34.5005 44.9882C39.9089 45.5826 44.1944 44.8373 46.9076 39.705C49.1034 35.5882 48.0552 33.3813 45.4034 32.094C47.6694 31.4397 49.5517 29.9088 50.5213 27.0218ZM41.0285 37.969C39.2534 42.0528 32.8002 40.43 30.6868 40.0523L33.8541 32.7989C35.9676 33.1766 42.9092 33.6956 41.0285 37.969ZM44.0624 27.4621C42.4238 31.1952 37.0813 29.7796 35.324 29.4646L38.1994 22.8915C39.9567 23.2065 45.751 23.5892 44.0624 27.4621Z" fill="white"/>
</g>
<defs>
<linearGradient id="paint0_linear_25_270" x1="3000.74" y1="-231.957" x2="3454.68" y2="5535.86" gradientUnits="userSpaceOnUse">
<stop stop-color="#F9AA4B"/>
<stop offset="1" stop-color="#F7931A"/>
</linearGradient>
<clipPath id="clip0_25_270">
<rect width="60" height="60" fill="white" transform="matrix(0.996917 -0.0784591 -0.188924 0.981992 11.3354 4.70752)"/>
</clipPath>
</defs>
</svg>
