<svg width="34" height="34" viewBox="0 0 34 34" fill="none" xmlns="http://www.w3.org/2000/svg">
<g clip-path="url(#clip0_32_829)">
<path fill-rule="evenodd" clip-rule="evenodd" d="M18.5013 22.7516C18.1028 23.1495 17.5627 23.373 16.9996 23.373C16.4365 23.373 15.8964 23.1495 15.4979 22.7516L7.48245 14.7389C7.08399 14.3402 6.86022 13.7996 6.86035 13.236C6.86048 12.6724 7.08451 12.1319 7.48316 11.7334C7.8818 11.335 8.4224 11.1112 8.98603 11.1113C9.54967 11.1115 10.0902 11.3355 10.4886 11.7341L16.9996 18.2451L23.5106 11.7341C23.9112 11.3469 24.4479 11.1324 25.0051 11.137C25.5622 11.1416 26.0953 11.3648 26.4895 11.7586C26.8837 12.1524 27.1074 12.6853 27.1125 13.2425C27.1176 13.7996 26.9037 14.3365 26.5168 14.7375L18.5027 22.753L18.5013 22.7516Z" fill="#FAFAFA"/>
</g>
<defs>
<clipPath id="clip0_32_829">
<rect width="34" height="34" fill="white"/>
</clipPath>
</defs>
</svg>
